<svg xmlns="http://www.w3.org/2000/svg" width="17.293" height="17.293" viewBox="0 0 17.293 17.293">
  <path id="Icon_zocial-dribbble" data-name="Icon zocial-dribbble" d="M0,8.647A8.47,8.47,0,0,1,1.159,4.306,8.585,8.585,0,0,1,4.306,1.159,8.47,8.47,0,0,1,8.647,0a8.47,8.47,0,0,1,4.341,1.159,8.585,8.585,0,0,1,3.147,3.147,8.47,8.47,0,0,1,1.159,4.341,8.47,8.47,0,0,1-1.159,4.341,8.585,8.585,0,0,1-3.147,3.147,8.47,8.47,0,0,1-4.341,1.159,8.47,8.47,0,0,1-4.341-1.159,8.585,8.585,0,0,1-3.147-3.147A8.47,8.47,0,0,1,0,8.647Zm1.435,0A6.973,6.973,0,0,0,3.251,13.4a9.9,9.9,0,0,1,2.629-3.1A8.6,8.6,0,0,1,9.39,8.456q-.259-.605-.5-1.089a21.012,21.012,0,0,1-6.433.951q-.674,0-1-.017,0,.069-.009.173t-.009.173ZM1.66,6.865q.38.035,1.124.035a18.979,18.979,0,0,0,5.482-.778A17.511,17.511,0,0,0,5.378,2.231,7.02,7.02,0,0,0,3.035,4.15,7.383,7.383,0,0,0,1.66,6.865Zm2.577,7.471a7.067,7.067,0,0,0,6.952,1.038A25.393,25.393,0,0,0,9.84,9.65,7.375,7.375,0,0,0,6.632,11.4a9.809,9.809,0,0,0-2.4,2.94ZM6.883,1.677A18.377,18.377,0,0,1,9.7,5.6,8.612,8.612,0,0,0,13.247,3.1a7.01,7.01,0,0,0-4.6-1.66,6.637,6.637,0,0,0-1.764.242Zm3.441,5.153q.259.553.588,1.4,1.28-.121,2.784-.121,1.072,0,2.127.052a6.943,6.943,0,0,0-1.695-4.185,8.557,8.557,0,0,1-3.8,2.853Zm1.02,2.611A24.821,24.821,0,0,1,12.538,14.7a7.215,7.215,0,0,0,2.231-2.265,6.985,6.985,0,0,0,1.038-2.992q-1.262-.086-2.3-.086Q12.555,9.356,11.344,9.442Z" fill="#162449"/>
</svg>
