<svg xmlns="http://www.w3.org/2000/svg" width="21.76" height="13.642" viewBox="0 0 21.76 13.642">
  <path id="Icon_awesome-behance" data-name="Icon awesome-behance" d="M8.765,11.414a2.867,2.867,0,0,0,1.828-2.8c0-2.667-1.987-3.317-4.28-3.317H0V18.69H6.49c2.433,0,4.719-1.167,4.719-3.887A3.226,3.226,0,0,0,8.765,11.414ZM2.943,7.587H5.7c1.062,0,2.017.3,2.017,1.53,0,1.137-.744,1.594-1.794,1.594H2.943V7.587ZM6.09,16.416H2.943V12.729H6.15c1.3,0,2.116.54,2.116,1.912C8.266,15.993,7.287,16.416,6.09,16.416ZM19.634,7.323H14.2V6h5.429Zm2.127,6.66c0-2.867-1.677-5.259-4.719-5.259a4.872,4.872,0,0,0-4.96,5.13,4.722,4.722,0,0,0,4.96,5.089,4.322,4.322,0,0,0,4.537-3.26h-2.35a2.206,2.206,0,0,1-2.1,1.266,2.192,2.192,0,0,1-2.38-2.467h6.993C21.749,14.323,21.76,14.153,21.76,13.983ZM14.749,12.8a2.081,2.081,0,0,1,2.21-2.07,1.985,1.985,0,0,1,2.123,2.07Z" transform="translate(0 -5.302)" fill="#162449"/>
</svg>
