<svg xmlns="http://www.w3.org/2000/svg" width="22.41" height="22.405" viewBox="0 0 22.41 22.405">
  <path id="Icon_awesome-instagram" data-name="Icon awesome-instagram" d="M11.2,7.7a5.744,5.744,0,1,0,5.744,5.744A5.735,5.735,0,0,0,11.2,7.7Zm0,9.479a3.735,3.735,0,1,1,3.735-3.735A3.741,3.741,0,0,1,11.2,17.175Zm7.319-9.714a1.34,1.34,0,1,1-1.34-1.34A1.337,1.337,0,0,1,18.521,7.461Zm3.8,1.36a6.63,6.63,0,0,0-1.81-4.694,6.674,6.674,0,0,0-4.694-1.81c-1.85-.1-7.394-.1-9.244,0a6.665,6.665,0,0,0-4.694,1.8A6.652,6.652,0,0,0,.073,8.816c-.1,1.85-.1,7.394,0,9.244a6.63,6.63,0,0,0,1.81,4.694,6.683,6.683,0,0,0,4.694,1.81c1.85.1,7.394.1,9.244,0a6.63,6.63,0,0,0,4.694-1.81,6.674,6.674,0,0,0,1.81-4.694c.1-1.85.1-7.389,0-9.239Zm-2.39,11.224a3.781,3.781,0,0,1-2.13,2.13c-1.475.585-4.974.45-6.6.45s-5.134.13-6.6-.45a3.781,3.781,0,0,1-2.13-2.13c-.585-1.475-.45-4.974-.45-6.6s-.13-5.134.45-6.6A3.781,3.781,0,0,1,4.6,4.706c1.475-.585,4.974-.45,6.6-.45s5.134-.13,6.6.45a3.781,3.781,0,0,1,2.13,2.13c.585,1.475.45,4.974.45,6.6S20.521,18.574,19.936,20.044Z" transform="translate(0.005 -2.238)" fill="#162449"/>
</svg>
