<svg xmlns="http://www.w3.org/2000/svg" width="20.719" height="16.86" viewBox="0 0 20.719 16.86">
  <path id="Icon_ionic-logo-twitter" data-name="Icon ionic-logo-twitter" d="M22.132,6.5a8.594,8.594,0,0,1-2.441.672,4.266,4.266,0,0,0,1.87-2.353,8.446,8.446,0,0,1-2.7,1.032,4.249,4.249,0,0,0-7.354,2.907,4.162,4.162,0,0,0,.11.97A12.046,12.046,0,0,1,2.853,5.277a4.259,4.259,0,0,0,1.322,5.681,4.152,4.152,0,0,1-1.932-.531v.053a4.254,4.254,0,0,0,3.411,4.171,4.279,4.279,0,0,1-1.12.149,4.01,4.01,0,0,1-.8-.079,4.258,4.258,0,0,0,3.973,2.955A8.523,8.523,0,0,1,2.427,19.5a8.616,8.616,0,0,1-1.014-.061A11.882,11.882,0,0,0,7.92,21.36a12.022,12.022,0,0,0,12.1-12.109c0-.184,0-.369-.013-.549A8.653,8.653,0,0,0,22.132,6.5Z" transform="translate(-1.413 -4.5)" fill="#162449"/>
</svg>
